<mxfile host="app.diagrams.net" agent="Mozilla/5.0 (Windows NT 10.0; Win64; x64) AppleWebKit/537.36 (KHTML, like Gecko) Chrome/129.0.0.0 Safari/537.36" version="24.7.17">
  <diagram name="Page-1" id="_ovs7FLV9zgo8T56H_1F">
    <mxGraphModel grid="1" page="1" gridSize="10" guides="1" tooltips="1" connect="1" arrows="1" fold="1" pageScale="1" pageWidth="850" pageHeight="1100" math="0" shadow="0">
      <root>
        <mxCell id="0" />
        <mxCell id="1" parent="0" />
        <mxCell id="__FqmHdIersILs7mIJOV-1" value="APPLICANT" style="shape=table;startSize=25;container=1;collapsible=0;childLayout=tableLayout;fixedRows=1;rowLines=1;fontStyle=1;align=center;resizeLast=1;fillColor=#d5e8d4;strokeColor=#82b366;" vertex="1" parent="1">
          <mxGeometry x="127" y="20" width="102" height="109" as="geometry" />
        </mxCell>
        <mxCell id="__FqmHdIersILs7mIJOV-2" style="shape=tableRow;horizontal=0;startSize=0;swimlaneHead=0;swimlaneBody=0;fillColor=none;collapsible=0;dropTarget=0;points=[[0,0.5],[1,0.5]];portConstraint=eastwest;top=0;left=0;right=0;bottom=0;" vertex="1" parent="__FqmHdIersILs7mIJOV-1">
          <mxGeometry y="25" width="102" height="21" as="geometry" />
        </mxCell>
        <mxCell id="__FqmHdIersILs7mIJOV-3" value="int" style="shape=partialRectangle;connectable=0;fillColor=none;top=0;left=0;bottom=0;right=0;align=left;spacingLeft=2;overflow=hidden;fontSize=11;" vertex="1" parent="__FqmHdIersILs7mIJOV-2">
          <mxGeometry width="36" height="21" as="geometry">
            <mxRectangle width="36" height="21" as="alternateBounds" />
          </mxGeometry>
        </mxCell>
        <mxCell id="__FqmHdIersILs7mIJOV-4" value="ApplicantID" style="shape=partialRectangle;connectable=0;fillColor=none;top=0;left=0;bottom=0;right=0;align=left;spacingLeft=2;overflow=hidden;fontSize=11;" vertex="1" parent="__FqmHdIersILs7mIJOV-2">
          <mxGeometry x="36" width="66" height="21" as="geometry">
            <mxRectangle width="66" height="21" as="alternateBounds" />
          </mxGeometry>
        </mxCell>
        <mxCell id="__FqmHdIersILs7mIJOV-5" style="shape=tableRow;horizontal=0;startSize=0;swimlaneHead=0;swimlaneBody=0;fillColor=none;collapsible=0;dropTarget=0;points=[[0,0.5],[1,0.5]];portConstraint=eastwest;top=0;left=0;right=0;bottom=0;" vertex="1" parent="__FqmHdIersILs7mIJOV-1">
          <mxGeometry y="46" width="102" height="21" as="geometry" />
        </mxCell>
        <mxCell id="__FqmHdIersILs7mIJOV-6" value="string" style="shape=partialRectangle;connectable=0;fillColor=none;top=0;left=0;bottom=0;right=0;align=left;spacingLeft=2;overflow=hidden;fontSize=11;" vertex="1" parent="__FqmHdIersILs7mIJOV-5">
          <mxGeometry width="36" height="21" as="geometry">
            <mxRectangle width="36" height="21" as="alternateBounds" />
          </mxGeometry>
        </mxCell>
        <mxCell id="__FqmHdIersILs7mIJOV-7" value="Name" style="shape=partialRectangle;connectable=0;fillColor=none;top=0;left=0;bottom=0;right=0;align=left;spacingLeft=2;overflow=hidden;fontSize=11;" vertex="1" parent="__FqmHdIersILs7mIJOV-5">
          <mxGeometry x="36" width="66" height="21" as="geometry">
            <mxRectangle width="66" height="21" as="alternateBounds" />
          </mxGeometry>
        </mxCell>
        <mxCell id="__FqmHdIersILs7mIJOV-8" style="shape=tableRow;horizontal=0;startSize=0;swimlaneHead=0;swimlaneBody=0;fillColor=none;collapsible=0;dropTarget=0;points=[[0,0.5],[1,0.5]];portConstraint=eastwest;top=0;left=0;right=0;bottom=0;" vertex="1" parent="__FqmHdIersILs7mIJOV-1">
          <mxGeometry y="67" width="102" height="21" as="geometry" />
        </mxCell>
        <mxCell id="__FqmHdIersILs7mIJOV-9" value="string" style="shape=partialRectangle;connectable=0;fillColor=none;top=0;left=0;bottom=0;right=0;align=left;spacingLeft=2;overflow=hidden;fontSize=11;" vertex="1" parent="__FqmHdIersILs7mIJOV-8">
          <mxGeometry width="36" height="21" as="geometry">
            <mxRectangle width="36" height="21" as="alternateBounds" />
          </mxGeometry>
        </mxCell>
        <mxCell id="__FqmHdIersILs7mIJOV-10" value="Email" style="shape=partialRectangle;connectable=0;fillColor=none;top=0;left=0;bottom=0;right=0;align=left;spacingLeft=2;overflow=hidden;fontSize=11;" vertex="1" parent="__FqmHdIersILs7mIJOV-8">
          <mxGeometry x="36" width="66" height="21" as="geometry">
            <mxRectangle width="66" height="21" as="alternateBounds" />
          </mxGeometry>
        </mxCell>
        <mxCell id="__FqmHdIersILs7mIJOV-11" style="shape=tableRow;horizontal=0;startSize=0;swimlaneHead=0;swimlaneBody=0;fillColor=none;collapsible=0;dropTarget=0;points=[[0,0.5],[1,0.5]];portConstraint=eastwest;top=0;left=0;right=0;bottom=0;" vertex="1" parent="__FqmHdIersILs7mIJOV-1">
          <mxGeometry y="88" width="102" height="21" as="geometry" />
        </mxCell>
        <mxCell id="__FqmHdIersILs7mIJOV-12" value="string" style="shape=partialRectangle;connectable=0;fillColor=none;top=0;left=0;bottom=0;right=0;align=left;spacingLeft=2;overflow=hidden;fontSize=11;" vertex="1" parent="__FqmHdIersILs7mIJOV-11">
          <mxGeometry width="36" height="21" as="geometry">
            <mxRectangle width="36" height="21" as="alternateBounds" />
          </mxGeometry>
        </mxCell>
        <mxCell id="__FqmHdIersILs7mIJOV-13" value="Phone" style="shape=partialRectangle;connectable=0;fillColor=none;top=0;left=0;bottom=0;right=0;align=left;spacingLeft=2;overflow=hidden;fontSize=11;" vertex="1" parent="__FqmHdIersILs7mIJOV-11">
          <mxGeometry x="36" width="66" height="21" as="geometry">
            <mxRectangle width="66" height="21" as="alternateBounds" />
          </mxGeometry>
        </mxCell>
        <mxCell id="__FqmHdIersILs7mIJOV-14" value="JOB" style="shape=table;startSize=25;container=1;collapsible=0;childLayout=tableLayout;fixedRows=1;rowLines=1;fontStyle=1;align=center;resizeLast=1;fillColor=#d5e8d4;strokeColor=#82b366;" vertex="1" parent="1">
          <mxGeometry x="20" y="460" width="120" height="109" as="geometry" />
        </mxCell>
        <mxCell id="__FqmHdIersILs7mIJOV-15" style="shape=tableRow;horizontal=0;startSize=0;swimlaneHead=0;swimlaneBody=0;fillColor=none;collapsible=0;dropTarget=0;points=[[0,0.5],[1,0.5]];portConstraint=eastwest;top=0;left=0;right=0;bottom=0;" vertex="1" parent="__FqmHdIersILs7mIJOV-14">
          <mxGeometry y="25" width="120" height="21" as="geometry" />
        </mxCell>
        <mxCell id="__FqmHdIersILs7mIJOV-16" value="int" style="shape=partialRectangle;connectable=0;fillColor=none;top=0;left=0;bottom=0;right=0;align=left;spacingLeft=2;overflow=hidden;fontSize=11;" vertex="1" parent="__FqmHdIersILs7mIJOV-15">
          <mxGeometry width="36" height="21" as="geometry">
            <mxRectangle width="36" height="21" as="alternateBounds" />
          </mxGeometry>
        </mxCell>
        <mxCell id="__FqmHdIersILs7mIJOV-17" value="JobID" style="shape=partialRectangle;connectable=0;fillColor=none;top=0;left=0;bottom=0;right=0;align=left;spacingLeft=2;overflow=hidden;fontSize=11;" vertex="1" parent="__FqmHdIersILs7mIJOV-15">
          <mxGeometry x="36" width="84" height="21" as="geometry">
            <mxRectangle width="84" height="21" as="alternateBounds" />
          </mxGeometry>
        </mxCell>
        <mxCell id="__FqmHdIersILs7mIJOV-18" style="shape=tableRow;horizontal=0;startSize=0;swimlaneHead=0;swimlaneBody=0;fillColor=none;collapsible=0;dropTarget=0;points=[[0,0.5],[1,0.5]];portConstraint=eastwest;top=0;left=0;right=0;bottom=0;" vertex="1" parent="__FqmHdIersILs7mIJOV-14">
          <mxGeometry y="46" width="120" height="21" as="geometry" />
        </mxCell>
        <mxCell id="__FqmHdIersILs7mIJOV-19" value="string" style="shape=partialRectangle;connectable=0;fillColor=none;top=0;left=0;bottom=0;right=0;align=left;spacingLeft=2;overflow=hidden;fontSize=11;" vertex="1" parent="__FqmHdIersILs7mIJOV-18">
          <mxGeometry width="36" height="21" as="geometry">
            <mxRectangle width="36" height="21" as="alternateBounds" />
          </mxGeometry>
        </mxCell>
        <mxCell id="__FqmHdIersILs7mIJOV-20" value="Title" style="shape=partialRectangle;connectable=0;fillColor=none;top=0;left=0;bottom=0;right=0;align=left;spacingLeft=2;overflow=hidden;fontSize=11;" vertex="1" parent="__FqmHdIersILs7mIJOV-18">
          <mxGeometry x="36" width="84" height="21" as="geometry">
            <mxRectangle width="84" height="21" as="alternateBounds" />
          </mxGeometry>
        </mxCell>
        <mxCell id="__FqmHdIersILs7mIJOV-21" style="shape=tableRow;horizontal=0;startSize=0;swimlaneHead=0;swimlaneBody=0;fillColor=none;collapsible=0;dropTarget=0;points=[[0,0.5],[1,0.5]];portConstraint=eastwest;top=0;left=0;right=0;bottom=0;" vertex="1" parent="__FqmHdIersILs7mIJOV-14">
          <mxGeometry y="67" width="120" height="21" as="geometry" />
        </mxCell>
        <mxCell id="__FqmHdIersILs7mIJOV-22" value="string" style="shape=partialRectangle;connectable=0;fillColor=none;top=0;left=0;bottom=0;right=0;align=left;spacingLeft=2;overflow=hidden;fontSize=11;" vertex="1" parent="__FqmHdIersILs7mIJOV-21">
          <mxGeometry width="36" height="21" as="geometry">
            <mxRectangle width="36" height="21" as="alternateBounds" />
          </mxGeometry>
        </mxCell>
        <mxCell id="__FqmHdIersILs7mIJOV-23" value="Description" style="shape=partialRectangle;connectable=0;fillColor=none;top=0;left=0;bottom=0;right=0;align=left;spacingLeft=2;overflow=hidden;fontSize=11;" vertex="1" parent="__FqmHdIersILs7mIJOV-21">
          <mxGeometry x="36" width="84" height="21" as="geometry">
            <mxRectangle width="84" height="21" as="alternateBounds" />
          </mxGeometry>
        </mxCell>
        <mxCell id="__FqmHdIersILs7mIJOV-24" style="shape=tableRow;horizontal=0;startSize=0;swimlaneHead=0;swimlaneBody=0;fillColor=none;collapsible=0;dropTarget=0;points=[[0,0.5],[1,0.5]];portConstraint=eastwest;top=0;left=0;right=0;bottom=0;" vertex="1" parent="__FqmHdIersILs7mIJOV-14">
          <mxGeometry y="88" width="120" height="21" as="geometry" />
        </mxCell>
        <mxCell id="__FqmHdIersILs7mIJOV-25" value="string" style="shape=partialRectangle;connectable=0;fillColor=none;top=0;left=0;bottom=0;right=0;align=left;spacingLeft=2;overflow=hidden;fontSize=11;" vertex="1" parent="__FqmHdIersILs7mIJOV-24">
          <mxGeometry width="36" height="21" as="geometry">
            <mxRectangle width="36" height="21" as="alternateBounds" />
          </mxGeometry>
        </mxCell>
        <mxCell id="__FqmHdIersILs7mIJOV-26" value="RequiredSkills" style="shape=partialRectangle;connectable=0;fillColor=none;top=0;left=0;bottom=0;right=0;align=left;spacingLeft=2;overflow=hidden;fontSize=11;" vertex="1" parent="__FqmHdIersILs7mIJOV-24">
          <mxGeometry x="36" width="84" height="21" as="geometry">
            <mxRectangle width="84" height="21" as="alternateBounds" />
          </mxGeometry>
        </mxCell>
        <mxCell id="__FqmHdIersILs7mIJOV-27" value="APPLICATION_FORM" style="shape=table;startSize=25;container=1;collapsible=0;childLayout=tableLayout;fixedRows=1;rowLines=1;fontStyle=1;align=center;resizeLast=1;fillColor=#d5e8d4;strokeColor=#82b366;" vertex="1" parent="1">
          <mxGeometry x="109" y="229" width="136" height="131" as="geometry" />
        </mxCell>
        <mxCell id="__FqmHdIersILs7mIJOV-28" style="shape=tableRow;horizontal=0;startSize=0;swimlaneHead=0;swimlaneBody=0;fillColor=none;collapsible=0;dropTarget=0;points=[[0,0.5],[1,0.5]];portConstraint=eastwest;top=0;left=0;right=0;bottom=0;" vertex="1" parent="__FqmHdIersILs7mIJOV-27">
          <mxGeometry y="25" width="136" height="21" as="geometry" />
        </mxCell>
        <mxCell id="__FqmHdIersILs7mIJOV-29" value="int" style="shape=partialRectangle;connectable=0;fillColor=none;top=0;left=0;bottom=0;right=0;align=left;spacingLeft=2;overflow=hidden;fontSize=11;" vertex="1" parent="__FqmHdIersILs7mIJOV-28">
          <mxGeometry width="36" height="21" as="geometry">
            <mxRectangle width="36" height="21" as="alternateBounds" />
          </mxGeometry>
        </mxCell>
        <mxCell id="__FqmHdIersILs7mIJOV-30" value="FormID" style="shape=partialRectangle;connectable=0;fillColor=none;top=0;left=0;bottom=0;right=0;align=left;spacingLeft=2;overflow=hidden;fontSize=11;" vertex="1" parent="__FqmHdIersILs7mIJOV-28">
          <mxGeometry x="36" width="100" height="21" as="geometry">
            <mxRectangle width="100" height="21" as="alternateBounds" />
          </mxGeometry>
        </mxCell>
        <mxCell id="__FqmHdIersILs7mIJOV-31" style="shape=tableRow;horizontal=0;startSize=0;swimlaneHead=0;swimlaneBody=0;fillColor=none;collapsible=0;dropTarget=0;points=[[0,0.5],[1,0.5]];portConstraint=eastwest;top=0;left=0;right=0;bottom=0;" vertex="1" parent="__FqmHdIersILs7mIJOV-27">
          <mxGeometry y="46" width="136" height="21" as="geometry" />
        </mxCell>
        <mxCell id="__FqmHdIersILs7mIJOV-32" value="int" style="shape=partialRectangle;connectable=0;fillColor=none;top=0;left=0;bottom=0;right=0;align=left;spacingLeft=2;overflow=hidden;fontSize=11;" vertex="1" parent="__FqmHdIersILs7mIJOV-31">
          <mxGeometry width="36" height="21" as="geometry">
            <mxRectangle width="36" height="21" as="alternateBounds" />
          </mxGeometry>
        </mxCell>
        <mxCell id="__FqmHdIersILs7mIJOV-33" value="ApplicantID" style="shape=partialRectangle;connectable=0;fillColor=none;top=0;left=0;bottom=0;right=0;align=left;spacingLeft=2;overflow=hidden;fontSize=11;" vertex="1" parent="__FqmHdIersILs7mIJOV-31">
          <mxGeometry x="36" width="100" height="21" as="geometry">
            <mxRectangle width="100" height="21" as="alternateBounds" />
          </mxGeometry>
        </mxCell>
        <mxCell id="__FqmHdIersILs7mIJOV-34" style="shape=tableRow;horizontal=0;startSize=0;swimlaneHead=0;swimlaneBody=0;fillColor=none;collapsible=0;dropTarget=0;points=[[0,0.5],[1,0.5]];portConstraint=eastwest;top=0;left=0;right=0;bottom=0;" vertex="1" parent="__FqmHdIersILs7mIJOV-27">
          <mxGeometry y="67" width="136" height="21" as="geometry" />
        </mxCell>
        <mxCell id="__FqmHdIersILs7mIJOV-35" value="int" style="shape=partialRectangle;connectable=0;fillColor=none;top=0;left=0;bottom=0;right=0;align=left;spacingLeft=2;overflow=hidden;fontSize=11;" vertex="1" parent="__FqmHdIersILs7mIJOV-34">
          <mxGeometry width="36" height="21" as="geometry">
            <mxRectangle width="36" height="21" as="alternateBounds" />
          </mxGeometry>
        </mxCell>
        <mxCell id="__FqmHdIersILs7mIJOV-36" value="JobID" style="shape=partialRectangle;connectable=0;fillColor=none;top=0;left=0;bottom=0;right=0;align=left;spacingLeft=2;overflow=hidden;fontSize=11;" vertex="1" parent="__FqmHdIersILs7mIJOV-34">
          <mxGeometry x="36" width="100" height="21" as="geometry">
            <mxRectangle width="100" height="21" as="alternateBounds" />
          </mxGeometry>
        </mxCell>
        <mxCell id="__FqmHdIersILs7mIJOV-37" style="shape=tableRow;horizontal=0;startSize=0;swimlaneHead=0;swimlaneBody=0;fillColor=none;collapsible=0;dropTarget=0;points=[[0,0.5],[1,0.5]];portConstraint=eastwest;top=0;left=0;right=0;bottom=0;" vertex="1" parent="__FqmHdIersILs7mIJOV-27">
          <mxGeometry y="88" width="136" height="21" as="geometry" />
        </mxCell>
        <mxCell id="__FqmHdIersILs7mIJOV-38" value="date" style="shape=partialRectangle;connectable=0;fillColor=none;top=0;left=0;bottom=0;right=0;align=left;spacingLeft=2;overflow=hidden;fontSize=11;" vertex="1" parent="__FqmHdIersILs7mIJOV-37">
          <mxGeometry width="36" height="21" as="geometry">
            <mxRectangle width="36" height="21" as="alternateBounds" />
          </mxGeometry>
        </mxCell>
        <mxCell id="__FqmHdIersILs7mIJOV-39" value="SubmissionDate" style="shape=partialRectangle;connectable=0;fillColor=none;top=0;left=0;bottom=0;right=0;align=left;spacingLeft=2;overflow=hidden;fontSize=11;" vertex="1" parent="__FqmHdIersILs7mIJOV-37">
          <mxGeometry x="36" width="100" height="21" as="geometry">
            <mxRectangle width="100" height="21" as="alternateBounds" />
          </mxGeometry>
        </mxCell>
        <mxCell id="__FqmHdIersILs7mIJOV-40" style="shape=tableRow;horizontal=0;startSize=0;swimlaneHead=0;swimlaneBody=0;fillColor=none;collapsible=0;dropTarget=0;points=[[0,0.5],[1,0.5]];portConstraint=eastwest;top=0;left=0;right=0;bottom=0;" vertex="1" parent="__FqmHdIersILs7mIJOV-27">
          <mxGeometry y="109" width="136" height="21" as="geometry" />
        </mxCell>
        <mxCell id="__FqmHdIersILs7mIJOV-41" value="string" style="shape=partialRectangle;connectable=0;fillColor=none;top=0;left=0;bottom=0;right=0;align=left;spacingLeft=2;overflow=hidden;fontSize=11;" vertex="1" parent="__FqmHdIersILs7mIJOV-40">
          <mxGeometry width="36" height="21" as="geometry">
            <mxRectangle width="36" height="21" as="alternateBounds" />
          </mxGeometry>
        </mxCell>
        <mxCell id="__FqmHdIersILs7mIJOV-42" value="Status" style="shape=partialRectangle;connectable=0;fillColor=none;top=0;left=0;bottom=0;right=0;align=left;spacingLeft=2;overflow=hidden;fontSize=11;" vertex="1" parent="__FqmHdIersILs7mIJOV-40">
          <mxGeometry x="36" width="100" height="21" as="geometry">
            <mxRectangle width="100" height="21" as="alternateBounds" />
          </mxGeometry>
        </mxCell>
        <mxCell id="__FqmHdIersILs7mIJOV-43" value="INVOICE" style="shape=table;startSize=25;container=1;collapsible=0;childLayout=tableLayout;fixedRows=1;rowLines=1;fontStyle=1;align=center;resizeLast=1;fillColor=#d5e8d4;strokeColor=#82b366;" vertex="1" parent="1">
          <mxGeometry x="229" y="460" width="102" height="109" as="geometry" />
        </mxCell>
        <mxCell id="__FqmHdIersILs7mIJOV-44" style="shape=tableRow;horizontal=0;startSize=0;swimlaneHead=0;swimlaneBody=0;fillColor=none;collapsible=0;dropTarget=0;points=[[0,0.5],[1,0.5]];portConstraint=eastwest;top=0;left=0;right=0;bottom=0;" vertex="1" parent="__FqmHdIersILs7mIJOV-43">
          <mxGeometry y="25" width="102" height="21" as="geometry" />
        </mxCell>
        <mxCell id="__FqmHdIersILs7mIJOV-45" value="int" style="shape=partialRectangle;connectable=0;fillColor=none;top=0;left=0;bottom=0;right=0;align=left;spacingLeft=2;overflow=hidden;fontSize=11;" vertex="1" parent="__FqmHdIersILs7mIJOV-44">
          <mxGeometry width="36" height="21" as="geometry">
            <mxRectangle width="36" height="21" as="alternateBounds" />
          </mxGeometry>
        </mxCell>
        <mxCell id="__FqmHdIersILs7mIJOV-46" value="InvoiceID" style="shape=partialRectangle;connectable=0;fillColor=none;top=0;left=0;bottom=0;right=0;align=left;spacingLeft=2;overflow=hidden;fontSize=11;" vertex="1" parent="__FqmHdIersILs7mIJOV-44">
          <mxGeometry x="36" width="66" height="21" as="geometry">
            <mxRectangle width="66" height="21" as="alternateBounds" />
          </mxGeometry>
        </mxCell>
        <mxCell id="__FqmHdIersILs7mIJOV-47" style="shape=tableRow;horizontal=0;startSize=0;swimlaneHead=0;swimlaneBody=0;fillColor=none;collapsible=0;dropTarget=0;points=[[0,0.5],[1,0.5]];portConstraint=eastwest;top=0;left=0;right=0;bottom=0;" vertex="1" parent="__FqmHdIersILs7mIJOV-43">
          <mxGeometry y="46" width="102" height="21" as="geometry" />
        </mxCell>
        <mxCell id="__FqmHdIersILs7mIJOV-48" value="int" style="shape=partialRectangle;connectable=0;fillColor=none;top=0;left=0;bottom=0;right=0;align=left;spacingLeft=2;overflow=hidden;fontSize=11;" vertex="1" parent="__FqmHdIersILs7mIJOV-47">
          <mxGeometry width="36" height="21" as="geometry">
            <mxRectangle width="36" height="21" as="alternateBounds" />
          </mxGeometry>
        </mxCell>
        <mxCell id="__FqmHdIersILs7mIJOV-49" value="FormID" style="shape=partialRectangle;connectable=0;fillColor=none;top=0;left=0;bottom=0;right=0;align=left;spacingLeft=2;overflow=hidden;fontSize=11;" vertex="1" parent="__FqmHdIersILs7mIJOV-47">
          <mxGeometry x="36" width="66" height="21" as="geometry">
            <mxRectangle width="66" height="21" as="alternateBounds" />
          </mxGeometry>
        </mxCell>
        <mxCell id="__FqmHdIersILs7mIJOV-50" style="shape=tableRow;horizontal=0;startSize=0;swimlaneHead=0;swimlaneBody=0;fillColor=none;collapsible=0;dropTarget=0;points=[[0,0.5],[1,0.5]];portConstraint=eastwest;top=0;left=0;right=0;bottom=0;" vertex="1" parent="__FqmHdIersILs7mIJOV-43">
          <mxGeometry y="67" width="102" height="21" as="geometry" />
        </mxCell>
        <mxCell id="__FqmHdIersILs7mIJOV-51" value="double" style="shape=partialRectangle;connectable=0;fillColor=none;top=0;left=0;bottom=0;right=0;align=left;spacingLeft=2;overflow=hidden;fontSize=11;" vertex="1" parent="__FqmHdIersILs7mIJOV-50">
          <mxGeometry width="36" height="21" as="geometry">
            <mxRectangle width="36" height="21" as="alternateBounds" />
          </mxGeometry>
        </mxCell>
        <mxCell id="__FqmHdIersILs7mIJOV-52" value="Amount" style="shape=partialRectangle;connectable=0;fillColor=none;top=0;left=0;bottom=0;right=0;align=left;spacingLeft=2;overflow=hidden;fontSize=11;" vertex="1" parent="__FqmHdIersILs7mIJOV-50">
          <mxGeometry x="36" width="66" height="21" as="geometry">
            <mxRectangle width="66" height="21" as="alternateBounds" />
          </mxGeometry>
        </mxCell>
        <mxCell id="__FqmHdIersILs7mIJOV-53" style="shape=tableRow;horizontal=0;startSize=0;swimlaneHead=0;swimlaneBody=0;fillColor=none;collapsible=0;dropTarget=0;points=[[0,0.5],[1,0.5]];portConstraint=eastwest;top=0;left=0;right=0;bottom=0;" vertex="1" parent="__FqmHdIersILs7mIJOV-43">
          <mxGeometry y="88" width="102" height="21" as="geometry" />
        </mxCell>
        <mxCell id="__FqmHdIersILs7mIJOV-54" value="date" style="shape=partialRectangle;connectable=0;fillColor=none;top=0;left=0;bottom=0;right=0;align=left;spacingLeft=2;overflow=hidden;fontSize=11;" vertex="1" parent="__FqmHdIersILs7mIJOV-53">
          <mxGeometry width="36" height="21" as="geometry">
            <mxRectangle width="36" height="21" as="alternateBounds" />
          </mxGeometry>
        </mxCell>
        <mxCell id="__FqmHdIersILs7mIJOV-55" value="BillingDate" style="shape=partialRectangle;connectable=0;fillColor=none;top=0;left=0;bottom=0;right=0;align=left;spacingLeft=2;overflow=hidden;fontSize=11;" vertex="1" parent="__FqmHdIersILs7mIJOV-53">
          <mxGeometry x="36" width="66" height="21" as="geometry">
            <mxRectangle width="66" height="21" as="alternateBounds" />
          </mxGeometry>
        </mxCell>
        <mxCell id="__FqmHdIersILs7mIJOV-56" value="submits" style="curved=1;startArrow=ERmandOne;startSize=10;;endArrow=ERmany;endSize=10;;exitX=0.49;exitY=1;entryX=0.5;entryY=0;rounded=0;" edge="1" parent="1" source="__FqmHdIersILs7mIJOV-1" target="__FqmHdIersILs7mIJOV-27">
          <mxGeometry relative="1" as="geometry">
            <Array as="points" />
          </mxGeometry>
        </mxCell>
        <mxCell id="__FqmHdIersILs7mIJOV-57" value="applies for" style="curved=1;startArrow=ERoneToMany;startSize=10;;endArrow=ERmandOne;endSize=10;;exitX=0.08;exitY=1;entryX=0.46;entryY=0;rounded=0;" edge="1" parent="1" source="__FqmHdIersILs7mIJOV-27" target="__FqmHdIersILs7mIJOV-14">
          <mxGeometry relative="1" as="geometry">
            <Array as="points">
              <mxPoint x="75" y="410" />
            </Array>
          </mxGeometry>
        </mxCell>
        <mxCell id="__FqmHdIersILs7mIJOV-58" value="related to" style="curved=1;startArrow=ERmandOne;startSize=10;;endArrow=ERmany;endSize=10;;exitX=0.93;exitY=1;entryX=0.5;entryY=0;rounded=0;" edge="1" parent="1" source="__FqmHdIersILs7mIJOV-27" target="__FqmHdIersILs7mIJOV-43">
          <mxGeometry relative="1" as="geometry">
            <Array as="points">
              <mxPoint x="280" y="410" />
            </Array>
          </mxGeometry>
        </mxCell>
      </root>
    </mxGraphModel>
  </diagram>
</mxfile>
